# xmcd
#
# Track frame offsets: 
#        150
#        18555
#        35681
#        51458
#        65767
#        82995
#        102320
#        123115
#        141496
#        168906
#        181035
#        198040
#
# Disc length: 2879 seconds
#
# Revision: 0
# Processed by: cddbd v1.5.2PL0 Copyright (c) Steve Scherf et al.
# Submitted via: ExactAudioCopy v0.95b4
#
DISCID=a20b3d0c
DTITLE=Paulo de Carvalho - Meninos de Huambo
DYEAR=1997
DGENRE=Fado
TTITLE0=Os Meninos de Huambo
TTITLE1=Ai de Nós
TTITLE2=Lisboa, Menina e Moça
TTITLE3=O Cacilheiro
TTITLE4=Os Putos
TTITLE5=Assim Mesmo - Todos Diferentes Todos Iguais
TTITLE6=Calé
TTITLE7=Balada Para Uma Boneca de Capelista
TTITLE8=Gaivota
TTITLE9=Serenadas de Hilário no Céu
TTITLE10=Meu Amor
TTITLE11=Caminho Para S. Tomé - Sodade
EXTD=
EXTT0=
EXTT1=
EXTT2=
EXTT3=
EXTT4=
EXTT5=
EXTT6=
EXTT7=
EXTT8=
EXTT9=
EXTT10=
EXTT11=
PLAYORDER=
